<svg width="10" height="10" viewBox="0 0 10 10" fill="none" xmlns="http://www.w3.org/2000/svg">
<path id="Vector" d="M9.7246 2.77404L8.82417 3.67446C8.73236 3.76626 8.58392 3.76626 8.49212 3.67446L6.32405 1.50641C6.23225 1.41461 6.23225 1.26616 6.32405 1.17436L7.22448 0.273937C7.58973 -0.0913122 8.18351 -0.0913122 8.55071 0.273937L9.7246 1.44781C10.0918 1.81306 10.0918 2.40683 9.7246 2.77404ZM5.55058 1.94783L0.421432 7.07694L0.00735004 9.45008C-0.0492932 9.77041 0.230017 10.0478 0.550344 9.99307L2.9235 9.57704L8.05264 4.44793C8.14445 4.35613 8.14445 4.20769 8.05264 4.11589L5.88458 1.94783C5.79082 1.85603 5.64238 1.85603 5.55058 1.94783ZM2.42348 6.63747C2.31605 6.53004 2.31605 6.35816 2.42348 6.25074L5.43143 3.24281C5.53886 3.13538 5.71074 3.13538 5.81817 3.24281C5.92559 3.35023 5.92559 3.52211 5.81817 3.62954L2.81021 6.63747C2.70279 6.7449 2.5309 6.7449 2.42348 6.63747ZM1.71837 8.28011H2.65591V8.98913L1.39609 9.20984L0.788636 8.60239L1.00935 7.34258H1.71837V8.28011Z" fill="black" fill-opacity="0.6"/>
</svg>
