<svg width="16" height="16" viewBox="0 0 16 16" fill="none" xmlns="http://www.w3.org/2000/svg">
<path d="M10.8469 7.8296L11.1643 8.21587L10.8469 7.8296ZM4.91908 7.83716L5.25159 7.46374L4.91908 7.83716ZM8.91165 12.8947L8.62315 12.4864L8.91165 12.8947ZM7.61747 13.809L7.90597 14.2174L7.61747 13.809ZM2.75069 5.90636L2.41819 6.27978L2.75069 5.90636ZM13.1937 5.90061L12.8763 5.51434L13.1937 5.90061ZM10.6667 5.16667C10.9428 5.16667 11.1667 4.94281 11.1667 4.66667C11.1667 4.39052 10.9428 4.16667 10.6667 4.16667V5.16667ZM5.33333 4.16667C5.05719 4.16667 4.83333 4.39052 4.83333 4.66667C4.83333 4.94281 5.05719 5.16667 5.33333 5.16667L5.33333 4.16667ZM4.31497 2.5H11.7228V1.5H4.31497V2.5ZM8.62315 12.4864L7.32897 13.4006L7.90597 14.2174L9.20015 13.3031L8.62315 12.4864ZM6.5 13.0089V10.224H5.5V13.0089H6.5ZM5.25159 7.46374L3.08319 5.53294L2.41819 6.27978L4.58658 8.21058L5.25159 7.46374ZM12.8763 5.51434L10.5294 7.44333L11.1643 8.21587L13.5112 6.28688L12.8763 5.51434ZM9.16667 10.3014V11.4545H10.1667V10.3014H9.16667ZM10.5294 7.44333C9.66763 8.15162 9.16667 9.1964 9.16667 10.3014H10.1667C10.1667 9.50149 10.5291 8.73801 11.1643 8.21587L10.5294 7.44333ZM6.5 10.224C6.5 9.17112 6.04493 8.17016 5.25159 7.46374L4.58658 8.21058C5.17076 8.73074 5.5 9.46167 5.5 10.224H6.5ZM9.20015 13.3031C9.80409 12.8765 10.1667 12.1904 10.1667 11.4545H9.16667C9.16667 11.8582 8.96794 12.2428 8.62315 12.4864L9.20015 13.3031ZM7.32897 13.4006C6.96497 13.6578 6.5 13.3853 6.5 13.0089H5.5C5.5 14.2497 6.92365 14.9114 7.90597 14.2174L7.32897 13.4006ZM1.5 4.24871C1.5 5.02432 1.83526 5.76072 2.41819 6.27978L3.08319 5.53294C2.70944 5.20014 2.5 4.73376 2.5 4.24871H1.5ZM13.5 4.212C13.5 4.71012 13.2744 5.18713 12.8763 5.51434L13.5112 6.28688C14.1358 5.77352 14.5 5.01521 14.5 4.212H13.5ZM11.7228 2.5C12.7181 2.5 13.5 3.28008 13.5 4.212H14.5C14.5 2.70062 13.2428 1.5 11.7228 1.5V2.5ZM4.31497 1.5C2.77409 1.5 1.5 2.71705 1.5 4.24871H2.5C2.5 3.29651 3.2988 2.5 4.31497 2.5V1.5ZM10.6667 4.16667L5.33333 4.16667L5.33333 5.16667L10.6667 5.16667V4.16667Z" fill="#556476"/>
</svg>
