<svg width="59" height="59" viewBox="0 0 59 59" fill="none" xmlns="http://www.w3.org/2000/svg">
<path d="M44.5784 27.0417C46.0089 40.2564 51.625 44.25 51.625 44.25H7.375C7.375 44.25 14.75 39.0056 14.75 20.65C14.75 16.4773 16.304 12.4754 19.0702 9.52487C21.8363 6.57428 25.5881 4.91667 29.5 4.91667C30.3292 4.91667 31.1513 4.99116 31.9583 5.13667" stroke="white" stroke-width="3.6875" stroke-linecap="round" stroke-linejoin="round"/>
<path d="M46.7084 19.6667C50.7816 19.6667 54.0834 16.3648 54.0834 12.2917C54.0834 8.21858 50.7816 4.91667 46.7084 4.91667C42.6352 4.91667 39.3334 8.21858 39.3334 12.2917C39.3334 16.3648 42.6352 19.6667 46.7084 19.6667Z" stroke="white" stroke-width="3.6875" stroke-linecap="round" stroke-linejoin="round"/>
<path d="M33.7529 51.625C33.3207 52.3701 32.7005 52.9886 31.9539 53.4184C31.2075 53.8483 30.3614 54.0747 29.5 54.0747C28.6386 54.0747 27.7924 53.8483 27.0461 53.4184C26.2997 52.9886 25.6792 52.3701 25.2471 51.625" stroke="white" stroke-width="3.6875" stroke-linecap="round" stroke-linejoin="round"/>
</svg>
