<svg width="59" height="59" viewBox="0 0 59 59" fill="none" xmlns="http://www.w3.org/2000/svg">
<path d="M20.8958 9.83337H14.7499C12.0345 9.83337 9.83325 12.0346 9.83325 14.75V49.1667C9.83325 51.8822 12.0345 54.0834 14.7499 54.0834H29.4999" stroke="white" stroke-width="3.6875" stroke-linecap="round"/>
<path d="M38.1042 9.83337H44.2501C46.9656 9.83337 49.1667 12.0346 49.1667 14.75V36.875" stroke="white" stroke-width="3.6875" stroke-linecap="round"/>
<path d="M19.6667 15.7334V11.0625C19.6667 10.3837 20.2171 9.83337 20.8959 9.83337C21.5748 9.83337 22.1355 9.28281 22.2517 8.61399C22.616 6.51883 24.0278 2.45837 29.5001 2.45837C34.9723 2.45837 36.3842 6.51883 36.7485 8.61399C36.8648 9.28281 37.4255 9.83337 38.1042 9.83337C38.783 9.83337 39.3334 10.3837 39.3334 11.0625V15.7334C39.3334 16.548 38.6731 17.2084 37.8584 17.2084H21.1417C20.3271 17.2084 19.6667 16.548 19.6667 15.7334Z" stroke="white" stroke-width="3.6875" stroke-linecap="round"/>
<path d="M38.1042 50.3959L43.0209 55.3125L55.3126 43.0209" stroke="white" stroke-width="3.6875" stroke-linecap="round" stroke-linejoin="round"/>
</svg>
