<svg width="30" height="30" viewBox="0 0 30 30" fill="none" xmlns="http://www.w3.org/2000/svg">
<g clip-path="url(#clip0_129_45)">
<path d="M25.3705 15.762L24.0764 20.5915C23.8257 21.549 23.0632 22.2192 22.159 22.3993L20.2271 22.917L20.7448 24.8488L17.1653 21.1492L18.4154 16.1555L18.933 18.0873L21.6569 17.3575L18.5161 14.2132L22.0515 10.6777L24.5977 13.2255C25.2993 13.8347 25.6335 14.8115 25.3705 15.762ZM9.9912 7.08682L14.8208 5.79272C15.7674 5.53908 16.736 5.86966 17.3443 6.5556L18.7605 7.9775L20.1728 6.56381L18.7641 11.5068L13.8129 12.9267L15.2251 11.513L13.2291 9.51141L12.0908 13.8022L7.25165 12.5107L8.1828 9.03112C8.36401 8.12328 9.03493 7.34305 9.9912 7.08682ZM10.2952 24.2945L6.75973 20.7591C6.06643 20.0648 5.87005 19.0615 6.16338 18.1857L6.68155 16.2558L4.75167 15.7377L9.73724 14.4846L13.4409 18.0681L11.5111 17.55L10.7806 20.2718L15.0693 19.1226L16.3634 23.9522L12.8861 24.884C12.4423 25.038 11.9643 25.0644 11.5063 24.9602C11.0482 24.856 10.6287 24.6253 10.2952 24.2945Z" fill="white"/>
</g>
<defs>
<clipPath id="clip0_129_45">
<rect width="24" height="24" fill="white" transform="translate(0.302979 6.51477) rotate(-15)"/>
</clipPath>
</defs>
</svg>
