<svg width="14" height="14" viewBox="0 0 14 14" fill="none" xmlns="http://www.w3.org/2000/svg">
<path d="M13.6417 12.5479L11.0228 9.93668C11.8678 8.86017 12.3263 7.53081 12.3246 6.16228C12.3246 4.9435 11.9632 3.75209 11.286 2.7387C10.6089 1.72532 9.64649 0.935487 8.52048 0.469078C7.39448 0.00267 6.15545 -0.119364 4.96008 0.118409C3.76472 0.356182 2.6667 0.943083 1.80489 1.80489C0.943083 2.6667 0.356182 3.76472 0.118409 4.96008C-0.119364 6.15545 0.00267 7.39448 0.469078 8.52048C0.935487 9.64649 1.72532 10.6089 2.7387 11.286C3.75209 11.9632 4.9435 12.3246 6.16228 12.3246C7.53081 12.3263 8.86017 11.8678 9.93668 11.0228L12.5479 13.6417C12.6196 13.7139 12.7047 13.7713 12.7986 13.8104C12.8925 13.8495 12.9932 13.8696 13.0948 13.8696C13.1965 13.8696 13.2972 13.8495 13.3911 13.8104C13.4849 13.7713 13.5701 13.7139 13.6417 13.6417C13.7139 13.5701 13.7713 13.4849 13.8104 13.3911C13.8495 13.2972 13.8696 13.1965 13.8696 13.0948C13.8696 12.9932 13.8495 12.8925 13.8104 12.7986C13.7713 12.7047 13.7139 12.6196 13.6417 12.5479ZM1.54057 6.16228C1.54057 5.2482 1.81163 4.35463 2.31947 3.5946C2.82731 2.83456 3.54912 2.24219 4.39363 1.89238C5.23814 1.54257 6.16741 1.45105 7.06393 1.62938C7.96046 1.80771 8.78397 2.24788 9.43033 2.89424C10.0767 3.5406 10.5169 4.36411 10.6952 5.26063C10.8735 6.15716 10.782 7.08643 10.4322 7.93093C10.0824 8.77544 9.49 9.49725 8.72997 10.0051C7.96993 10.5129 7.07637 10.784 6.16228 10.784C4.93653 10.784 3.76098 10.2971 2.89424 9.43033C2.0275 8.56359 1.54057 7.38804 1.54057 6.16228Z" fill="white"/>
</svg>
