<svg width="16" height="16" viewBox="0 0 16 16" fill="none" xmlns="http://www.w3.org/2000/svg">
<path d="M6.00004 3.5C5.7239 3.5 5.50004 3.72386 5.50004 4C5.50004 4.27614 5.7239 4.5 6.00004 4.5H10C10.2762 4.5 10.5 4.27614 10.5 4C10.5 3.72386 10.2762 3.5 10 3.5H6.00004Z" fill="#6B788E"/>
<path d="M3.33337 7.5C3.05723 7.5 2.83337 7.72386 2.83337 8C2.83337 8.27614 3.05723 8.5 3.33337 8.5H12.6667C12.9429 8.5 13.1667 8.27614 13.1667 8C13.1667 7.72386 12.9429 7.5 12.6667 7.5H3.33337Z" fill="#6B788E"/>
<path d="M6.00004 11.5C5.7239 11.5 5.50004 11.7239 5.50004 12C5.50004 12.2761 5.7239 12.5 6.00004 12.5H10C10.2762 12.5 10.5 12.2761 10.5 12C10.5 11.7239 10.2762 11.5 10 11.5H6.00004Z" fill="#6B788E"/>
<path d="M6.00004 3.5C5.7239 3.5 5.50004 3.72386 5.50004 4C5.50004 4.27614 5.7239 4.5 6.00004 4.5H10C10.2762 4.5 10.5 4.27614 10.5 4C10.5 3.72386 10.2762 3.5 10 3.5H6.00004Z" stroke="#556476"/>
<path d="M3.33337 7.5C3.05723 7.5 2.83337 7.72386 2.83337 8C2.83337 8.27614 3.05723 8.5 3.33337 8.5H12.6667C12.9429 8.5 13.1667 8.27614 13.1667 8C13.1667 7.72386 12.9429 7.5 12.6667 7.5H3.33337Z" stroke="#556476"/>
<path d="M6.00004 11.5C5.7239 11.5 5.50004 11.7239 5.50004 12C5.50004 12.2761 5.7239 12.5 6.00004 12.5H10C10.2762 12.5 10.5 12.2761 10.5 12C10.5 11.7239 10.2762 11.5 10 11.5H6.00004Z" stroke="#556476"/>
</svg>
