<svg width="18" height="18" viewBox="0 0 18 18" fill="none" xmlns="http://www.w3.org/2000/svg">
<path d="M14.3565 13.5484C14.1333 13.3252 13.7715 13.3252 13.5484 13.5484C13.3252 13.7715 13.3252 14.1334 13.5484 14.3565L14.3565 13.5484ZM16.5959 17.4041C16.8191 17.6272 17.1809 17.6273 17.404 17.4041C17.6272 17.1809 17.6272 16.8191 17.404 16.596L16.5959 17.4041ZM13.5484 14.3565L16.5959 17.4041L17.404 16.596L14.3565 13.5484L13.5484 14.3565ZM7.85714 14.1429C4.38564 14.1429 1.57143 11.3286 1.57143 7.85714H0.428571C0.428571 11.9598 3.75446 15.2857 7.85714 15.2857V14.1429ZM14.1429 7.85714C14.1429 11.3286 11.3286 14.1429 7.85714 14.1429V15.2857C11.9598 15.2857 15.2857 11.9598 15.2857 7.85714H14.1429ZM7.85714 1.57143C11.3286 1.57143 14.1429 4.38564 14.1429 7.85714H15.2857C15.2857 3.75446 11.9598 0.428571 7.85714 0.428571V1.57143ZM7.85714 0.428571C3.75446 0.428571 0.428571 3.75446 0.428571 7.85714H1.57143C1.57143 4.38564 4.38564 1.57143 7.85714 1.57143V0.428571Z" fill="#556476"/>
</svg>
