<svg width="16" height="16" viewBox="0 0 16 16" fill="none" xmlns="http://www.w3.org/2000/svg">
<path d="M9.33329 8.00001C9.33329 8.73639 8.73634 9.33334 7.99996 9.33334C7.26358 9.33334 6.66663 8.73639 6.66663 8.00001C6.66663 7.26363 7.26358 6.66668 7.99996 6.66668C8.73634 6.66668 9.33329 7.26363 9.33329 8.00001Z" fill="#172635"/>
<path d="M9.33329 2.66668C9.33329 3.40306 8.73634 4.00001 7.99996 4.00001C7.26358 4.00001 6.66663 3.40306 6.66663 2.66668C6.66663 1.9303 7.26358 1.33334 7.99996 1.33334C8.73634 1.33334 9.33329 1.9303 9.33329 2.66668Z" fill="#172635"/>
<path d="M9.33329 13.3333C9.33329 14.0697 8.73634 14.6667 7.99996 14.6667C7.26358 14.6667 6.66663 14.0697 6.66663 13.3333C6.66663 12.597 7.26358 12 7.99996 12C8.73634 12 9.33329 12.597 9.33329 13.3333Z" fill="#172635"/>
</svg>
