<svg width="14" height="14" viewBox="0 0 14 14" fill="none" xmlns="http://www.w3.org/2000/svg">
<g id="Group 38">
<g id="Group 864">
<path id="Vector" d="M8.09493 10.4995H5.90711C5.54339 10.4995 5.25077 10.2069 5.25077 9.84314V5.24872H2.85237C2.36558 5.24872 2.12219 4.66074 2.46677 4.31616L6.62636 0.153831C6.83147 -0.051277 7.16785 -0.051277 7.37295 0.153831L11.5353 4.31616C11.8799 4.66074 11.6365 5.24872 11.1497 5.24872H8.75128V9.84314C8.75128 10.2069 8.45866 10.4995 8.09493 10.4995ZM14.002 10.2807V13.3437C14.002 13.7074 13.7094 14 13.3457 14H0.656346C0.292621 14 0 13.7074 0 13.3437V10.2807C0 9.91698 0.292621 9.62436 0.656346 9.62436H4.37564V9.84314C4.37564 10.6882 5.06207 11.3746 5.90711 11.3746H8.09493C8.93998 11.3746 9.62641 10.6882 9.62641 9.84314V9.62436H13.3457C13.7094 9.62436 14.002 9.91698 14.002 10.2807ZM10.6109 12.6873C10.6109 12.3865 10.3648 12.1404 10.064 12.1404C9.76315 12.1404 9.51702 12.3865 9.51702 12.6873C9.51702 12.9881 9.76315 13.2343 10.064 13.2343C10.3648 13.2343 10.6109 12.9881 10.6109 12.6873ZM12.3612 12.6873C12.3612 12.3865 12.1151 12.1404 11.8142 12.1404C11.5134 12.1404 11.2673 12.3865 11.2673 12.6873C11.2673 12.9881 11.5134 13.2343 11.8142 13.2343C12.1151 13.2343 12.3612 12.9881 12.3612 12.6873Z" fill="black" fill-opacity="0.5"/>
</g>
</g>
</svg>
